{
  "accessors": [
    {
      "bufferView": 2,
      "componentType": 5126,
      "count": 1069,
      "max": [
        4.858089923858643,
        -0.0,
        0.20000000298023224
      ],
      "min": [
        0.20611600577831268,
        -3.0999999046325684,
        -0.36000001430511475
      ],
      "type": "VEC3"
    },
    {
      "bufferView": 2,
      "byteOffset": 12828,
      "componentType": 5126,
      "count": 1069,
      "max": [
        1.0,
        1.0,
        1.0
      ],
      "min": [
        -1.0,
        -1.0,
        -1.0
      ],
      "type": "VEC3"
    },
    {
      "bufferView": 1,
      "componentType": 5126,
      "count": 1069,
      "max": [
        0.9542040228843689,
        1.0
      ],
      "min": [
        -0.9542040228843689,
        0.02047497034072876
      ],
      "type": "VEC2"
    },
    {
      "bufferView": 0,
      "componentType": 5125,
      "count": 2004,
      "type": "SCALAR"
    },
    {
      "bufferView": 2,
      "byteOffset": 25656,
      "componentType": 5126,
      "count": 4960,
      "max": [
        5.176660060882568,
        -0.0,
        0.800000011920929
      ],
      "min": [
        0.0,
        -3.0999999046325684,
        -0.36000001430511475
      ],
      "type": "VEC3"
    },
    {
      "bufferView": 2,
      "byteOffset": 85176,
      "componentType": 5126,
      "count": 4960,
      "max": [
        1.0,
        1.0,
        1.0
      ],
      "min": [
        -1.0,
        -1.0,
        -1.0
      ],
      "type": "VEC3"
    },
    {
      "bufferView": 1,
      "byteOffset": 8552,
      "componentType": 5126,
      "count": 4960,
      "max": [
        0.7096490263938904,
        1.2362200021743774
      ],
      "min": [
        -0.7570449709892273,
        0.2502650022506714
      ],
      "type": "VEC2"
    },
    {
      "bufferView": 0,
      "byteOffset": 8016,
      "componentType": 5125,
      "count": 9252,
      "type": "SCALAR"
    },
    {
      "bufferView": 2,
      "byteOffset": 144696,
      "componentType": 5126,
      "count": 594,
      "max": [
        5.900000095367432,
        -0.0,
        2.8199698812675985e-16
      ],
      "min": [
        0.0,
        -3.0999999046325684,
        -0.36000001430511475
      ],
      "type": "VEC3"
    },
    {
      "bufferView": 2,
      "byteOffset": 151824,
      "componentType": 5126,
      "count": 594,
      "max": [
        1.0,
        1.0,
        1.466816251793901e-11
      ],
      "min": [
        -1.0,
        -1.0,
        -1.0
      ],
      "type": "VEC3"
    },
    {
      "bufferView": 3,
      "componentType": 5126,
      "count": 594,
      "max": [
        0.707089900970459,
        1.0,
        1.0,
        1.0
      ],
      "min": [
        -0.7071064710617065,
        -1.0,
        -1.0,
        -1.0
      ],
      "type": "VEC4"
    },
    {
      "bufferView": 1,
      "byteOffset": 48232,
      "componentType": 5126,
      "count": 594,
      "max": [
        1.0,
        1.0
      ],
      "min": [
        -3.6531498693673507e-16,
        0.0
      ],
      "type": "VEC2"
    },
    {
      "bufferView": 1,
      "byteOffset": 52984,
      "componentType": 5126,
      "count": 594,
      "max": [
        1.0,
        1.0
      ],
      "min": [
        -3.6531498693673507e-16,
        0.0
      ],
      "type": "VEC2"
    },
    {
      "bufferView": 1,
      "byteOffset": 57736,
      "componentType": 5126,
      "count": 594,
      "max": [
        1.0,
        1.0
      ],
      "min": [
        -3.6531498693673507e-16,
        0.0
      ],
      "type": "VEC2"
    },
    {
      "bufferView": 1,
      "byteOffset": 62488,
      "componentType": 5126,
      "count": 594,
      "max": [
        1.0,
        1.0
      ],
      "min": [
        -3.6531498693673507e-16,
        0.0
      ],
      "type": "VEC2"
    },
    {
      "bufferView": 0,
      "byteOffset": 45024,
      "componentType": 5125,
      "count": 1530,
      "type": "SCALAR"
    },
    {
      "bufferView": 2,
      "byteOffset": 158952,
      "componentType": 5126,
      "count": 52,
      "max": [
        5.900000095367432,
        -0.0,
        -0.0
      ],
      "min": [
        0.0,
        -3.0999999046325684,
        -0.34143298864364624
      ],
      "type": "VEC3"
    },
    {
      "bufferView": 2,
      "byteOffset": 159576,
      "componentType": 5126,
      "count": 52,
      "max": [
        1.0,
        1.0,
        1.0
      ],
      "min": [
        -1.0,
        -1.0,
        -1.0
      ],
      "type": "VEC3"
    },
    {
      "bufferView": 1,
      "byteOffset": 67240,
      "componentType": 5126,
      "count": 52,
      "max": [
        2.3228299617767334,
        1.0
      ],
      "min": [
        -2.3228299617767334,
        -0.0020200014114379883
      ],
      "type": "VEC2"
    },
    {
      "bufferView": 0,
      "byteOffset": 51144,
      "componentType": 5125,
      "count": 102,
      "type": "SCALAR"
    },
    {
      "bufferView": 2,
      "byteOffset": 160200,
      "componentType": 5126,
      "count": 100,
      "max": [
        5.900000095367432,
        -0.0,
        2.8199698812675985e-16
      ],
      "min": [
        0.0,
        -3.0999999046325684,
        -0.0
      ],
      "type": "VEC3"
    },
    {
      "bufferView": 2,
      "byteOffset": 161400,
      "componentType": 5126,
      "count": 100,
      "max": [
        2.4436419837088998e-15,
        2.9588681968429308e-15,
        1.0
      ],
      "min": [
        -2.2467949148987894e-15,
        -4.646567791719968e-15,
        1.0
      ],
      "type": "VEC3"
    },
    {
      "bufferView": 3,
      "byteOffset": 9504,
      "componentType": 5126,
      "count": 100,
      "max": [
        0.00015923155297059566,
        1.0,
        4.646501723150082e-15,
        -1.0
      ],
      "min": [
        -0.00035857834154739976,
        1.0,
        -2.958869043875878e-15,
        -1.0
      ],
      "type": "VEC4"
    },
    {
      "bufferView": 1,
      "byteOffset": 67656,
      "componentType": 5126,
      "count": 100,
      "max": [
        1.0,
        1.0
      ],
      "min": [
        5.551119887686111e-16,
        0.0
      ],
      "type": "VEC2"
    },
    {
      "bufferView": 1,
      "byteOffset": 68456,
      "componentType": 5126,
      "count": 100,
      "max": [
        1.0,
        1.0
      ],
      "min": [
        5.551119887686111e-16,
        0.0
      ],
      "type": "VEC2"
    },
    {
      "bufferView": 0,
      "byteOffset": 51552,
      "componentType": 5125,
      "count": 318,
      "type": "SCALAR"
    }
  ],
  "asset": {
    "extras": {
      "author": "davidg.dev (https://sketchfab.com/davidg.dev)",
      "license": "CC-BY-4.0 (http://creativecommons.org/licenses/by/4.0/)",
      "source": "https://sketchfab.com/3d-models/arduino-uno-wifi-card-model-esp8266mod-f953d84010d346fc8b1719d79d4c4a58",
      "title": "Arduino UNO WiFi Card Model ESP8266MOD"
    },
    "generator": "Sketchfab-15.49.0",
    "version": "2.0"
  },
  "bufferViews": [
    {
      "buffer": 0,
      "byteLength": 52824,
      "name": "floatBufferViews",
      "target": 34963
    },
    {
      "buffer": 0,
      "byteLength": 69256,
      "byteOffset": 52824,
      "byteStride": 8,
      "name": "floatBufferViews",
      "target": 34962
    },
    {
      "buffer": 0,
      "byteLength": 162600,
      "byteOffset": 122080,
      "byteStride": 12,
      "name": "floatBufferViews",
      "target": 34962
    },
    {
      "buffer": 0,
      "byteLength": 11104,
      "byteOffset": 284680,
      "byteStride": 16,
      "name": "floatBufferViews",
      "target": 34962
    }
  ],
  "buffers": [
    {
      "byteLength": 295784,
      "uri": "scene.bin"
    }
  ],
  "extensionsUsed": [
    "KHR_materials_specular"
  ],
  "images": [
    {
      "uri": "textures/wifi_card_front_baseColor.jpeg"
    },
    {
      "uri": "textures/wifi_card_front_metallicRoughness.png"
    },
    {
      "uri": "textures/wifi_card_front_normal.jpeg"
    },
    {
      "uri": "textures/wifi_card_back_baseColor.jpeg"
    },
    {
      "uri": "textures/wifi_card_back_normal.jpeg"
    }
  ],
  "materials": [
    {
      "doubleSided": true,
      "extensions": {
        "KHR_materials_specular": {
          "specularColorFactor": [
            1.0,
            1.0,
            1.0
          ],
          "specularFactor": 1.0
        }
      },
      "name": "material",
      "pbrMetallicRoughness": {
        "baseColorFactor": [
          0.0374098,
          0.0374098,
          0.0374098,
          1.0
        ],
        "metallicFactor": 0.73913,
        "roughnessFactor": 0.869565
      }
    },
    {
      "doubleSided": true,
      "extensions": {
        "KHR_materials_specular": {
          "specularColorFactor": [
            1.0,
            1.0,
            1.0
          ],
          "specularFactor": 1.0
        }
      },
      "name": "soldering",
      "pbrMetallicRoughness": {
        "baseColorFactor": [
          0.662745,
          0.662745,
          0.662745,
          1.0
        ],
        "roughnessFactor": 0.0
      }
    },
    {
      "doubleSided": true,
      "extensions": {
        "KHR_materials_specular": {
          "specularColorFactor": [
            1.0,
            1.0,
            1.0
          ],
          "specularFactor": 1.0
        }
      },
      "name": "wifi_card_front",
      "normalTexture": {
        "index": 2,
        "scale": 0.6
      },
      "pbrMetallicRoughness": {
        "baseColorTexture": {
          "index": 0
        },
        "metallicRoughnessTexture": {
          "index": 1
        }
      }
    },
    {
      "doubleSided": true,
      "extensions": {
        "KHR_materials_specular": {
          "specularColorFactor": [
            1.0,
            1.0,
            1.0
          ],
          "specularFactor": 1.0
        }
      },
      "name": "FrontColor",
      "pbrMetallicRoughness": {
        "baseColorFactor": [
          0.0720185,
          0.0985022,
          0.0765917,
          1.0
        ],
        "metallicFactor": 0.0,
        "roughnessFactor": 0.463768
      }
    },
    {
      "doubleSided": true,
      "extensions": {
        "KHR_materials_specular": {
          "specularColorFactor": [
            1.0,
            1.0,
            1.0
          ],
          "specularFactor": 1.0
        }
      },
      "name": "wifi_card_back",
      "normalTexture": {
        "index": 4,
        "scale": 0.7
      },
      "pbrMetallicRoughness": {
        "baseColorTexture": {
          "index": 3
        },
        "roughnessFactor": 0.0
      }
    }
  ],
  "meshes": [
    {
      "name": "Object_0",
      "primitives": [
        {
          "attributes": {
            "NORMAL": 1,
            "POSITION": 0,
            "TEXCOORD_0": 2
          },
          "indices": 3,
          "material": 0,
          "mode": 4
        }
      ]
    },
    {
      "name": "Object_1",
      "primitives": [
        {
          "attributes": {
            "NORMAL": 5,
            "POSITION": 4,
            "TEXCOORD_0": 6
          },
          "indices": 7,
          "material": 1,
          "mode": 4
        }
      ]
    },
    {
      "name": "Object_2",
      "primitives": [
        {
          "attributes": {
            "NORMAL": 9,
            "POSITION": 8,
            "TANGENT": 10,
            "TEXCOORD_0": 11,
            "TEXCOORD_1": 12,
            "TEXCOORD_2": 13,
            "TEXCOORD_3": 14
          },
          "indices": 15,
          "material": 2,
          "mode": 4
        }
      ]
    },
    {
      "name": "Object_3",
      "primitives": [
        {
          "attributes": {
            "NORMAL": 17,
            "POSITION": 16,
            "TEXCOORD_0": 18
          },
          "indices": 19,
          "material": 3,
          "mode": 4
        }
      ]
    },
    {
      "name": "Object_4",
      "primitives": [
        {
          "attributes": {
            "NORMAL": 21,
            "POSITION": 20,
            "TANGENT": 22,
            "TEXCOORD_0": 23,
            "TEXCOORD_1": 24
          },
          "indices": 25,
          "material": 4,
          "mode": 4
        }
      ]
    }
  ],
  "nodes": [
    {
      "children": [
        1
      ],
      "matrix": [
        1.0,
        0.0,
        0.0,
        0.0,
        0.0,
        2.220446049250313e-16,
        -1.0,
        0.0,
        0.0,
        1.0,
        2.220446049250313e-16,
        0.0,
        0.0,
        0.0,
        0.0,
        1.0
      ],
      "name": "Sketchfab_model"
    },
    {
      "children": [
        2
      ],
      "name": "root"
    },
    {
      "children": [
        3
      ],
      "matrix": [
        1.0,
        0.0,
        0.0,
        0.0,
        0.0,
        2.220446049250313e-16,
        1.0,
        0.0,
        0.0,
        -1.0,
        2.220446049250313e-16,
        0.0,
        0.0,
        0.0,
        0.0,
        1.0
      ],
      "name": "GLTF_SceneRootNode"
    },
    {
      "children": [
        4,
        5,
        6,
        7,
        8
      ],
      "matrix": [
        1.0,
        0.0,
        0.0,
        0.0,
        0.0,
        -3.371747936409264e-07,
        0.999999999999943,
        0.0,
        0.0,
        -0.999999999999943,
        -3.371747936409264e-07,
        0.0,
        0.0,
        0.0,
        0.0,
        1.0
      ],
      "name": "WiFi Card ESP_0"
    },
    {
      "mesh": 0,
      "name": "Object_4"
    },
    {
      "mesh": 1,
      "name": "Object_5"
    },
    {
      "mesh": 2,
      "name": "Object_6"
    },
    {
      "mesh": 3,
      "name": "Object_7"
    },
    {
      "mesh": 4,
      "name": "Object_8"
    }
  ],
  "samplers": [
    {
      "magFilter": 9729,
      "minFilter": 9987,
      "wrapS": 10497,
      "wrapT": 10497
    }
  ],
  "scene": 0,
  "scenes": [
    {
      "name": "Sketchfab_Scene",
      "nodes": [
        0
      ]
    }
  ],
  "textures": [
    {
      "sampler": 0,
      "source": 0
    },
    {
      "sampler": 0,
      "source": 1
    },
    {
      "sampler": 0,
      "source": 2
    },
    {
      "sampler": 0,
      "source": 3
    },
    {
      "sampler": 0,
      "source": 4
    }
  ]
}
